# xmcd
#
# Track frame offsets:
#  150
#  25243
#  47783
#  81708
#  101583
#  127177
#  147899
#  175709
#  189039
#  228816
#  253924
#  281950
#  313867
#
# Disc length: 4445 seconds
#
# Revision: 0
# Processed by: cddbd v1.5.2PL0 Copyright (c) Steve Scherf et al.
# Submitted via: Collectorz.com_Music_Collector 6.11
#
DISCID=bc115b0d
DTITLE=Gary Moore - Bkues Alive
DYEAR=1900
DGENRE=Hard Rock
TTITLE0=Cold Day in Hell
TTITLE1=Walking By Myself
TTITLE2=Story of the Blues
TTITLE3=Oh Pretty Woman
TTITLE4=Separate Ways
TTITLE5=Too Tired
TTITLE6=Still Got the Blues
TTITLE7=Since I Met You Baby
TTITLE8=The Sky is Crying
TTITLE9=Further on up the road
TTITLE10=King of the Blues
TTITLE11=Parisienne Walkways
TTITLE12=Jumpin' at Shadows
EXTD=
EXTT0=
EXTT1=
EXTT2=
EXTT3=
EXTT4=
EXTT5=
EXTT6=
EXTT7=
EXTT8=
EXTT9=
EXTT10=
EXTT11=
EXTT12=
PLAYORDER=
